<svg width="30" height="30" viewBox="0 0 30 30" fill="none" xmlns="http://www.w3.org/2000/svg">
<path fill-rule="evenodd" clip-rule="evenodd" d="M5 15.9375C5 15.6889 5.09877 15.4504 5.27459 15.2746C5.4504 15.0988 5.68886 15 5.9375 15H24.6875C24.9361 15 25.1746 15.0988 25.3504 15.2746C25.5262 15.4504 25.625 15.6889 25.625 15.9375C25.625 16.1861 25.5262 16.4246 25.3504 16.6004C25.1746 16.7762 24.9361 16.875 24.6875 16.875H5.9375C5.68886 16.875 5.4504 16.7762 5.27459 16.6004C5.09877 16.4246 5 16.1861 5 15.9375ZM5 8.4375C5 8.18886 5.09877 7.9504 5.27459 7.77459C5.4504 7.59877 5.68886 7.5 5.9375 7.5H24.6875C24.9361 7.5 25.1746 7.59877 25.3504 7.77459C25.5262 7.9504 25.625 8.18886 25.625 8.4375C25.625 8.68614 25.5262 8.9246 25.3504 9.10041C25.1746 9.27623 24.9361 9.375 24.6875 9.375H5.9375C5.68886 9.375 5.4504 9.27623 5.27459 9.10041C5.09877 8.9246 5 8.68614 5 8.4375ZM5 0.9375C5 0.68886 5.09877 0.450403 5.27459 0.274588C5.4504 0.0987722 5.68886 0 5.9375 0H24.6875C24.9361 0 25.1746 0.0987722 25.3504 0.274588C25.5262 0.450403 25.625 0.68886 25.625 0.9375C25.625 1.18614 25.5262 1.4246 25.3504 1.60041C25.1746 1.77623 24.9361 1.875 24.6875 1.875H5.9375C5.68886 1.875 5.4504 1.77623 5.27459 1.60041C5.09877 1.4246 5 1.18614 5 0.9375Z" fill="white"/>
</svg>
