<svg width="107" height="34" viewBox="0 0 107 34" fill="none" xmlns="http://www.w3.org/2000/svg">
<path d="M15.6113 19.5312C15.6113 18.9336 15.5176 18.4062 15.3301 17.9492C15.1543 17.4805 14.8379 17.0586 14.3809 16.6836C13.9355 16.3086 13.3145 15.9512 12.5176 15.6113C11.7324 15.2715 10.7363 14.9258 9.5293 14.5742C8.26367 14.1992 7.12109 13.7832 6.10156 13.3262C5.08203 12.8574 4.20898 12.3242 3.48242 11.7266C2.75586 11.1289 2.19922 10.4434 1.8125 9.66992C1.42578 8.89648 1.23242 8.01172 1.23242 7.01562C1.23242 6.01953 1.4375 5.09961 1.84766 4.25586C2.25781 3.41211 2.84375 2.67969 3.60547 2.05859C4.37891 1.42578 5.29883 0.933594 6.36523 0.582031C7.43164 0.230469 8.62109 0.0546875 9.93359 0.0546875C11.8555 0.0546875 13.4844 0.423828 14.8203 1.16211C16.168 1.88867 17.1934 2.84375 17.8965 4.02734C18.5996 5.19922 18.9512 6.45312 18.9512 7.78906H15.5762C15.5762 6.82812 15.3711 5.97852 14.9609 5.24023C14.5508 4.49023 13.9297 3.9043 13.0977 3.48242C12.2656 3.04883 11.2109 2.83203 9.93359 2.83203C8.72656 2.83203 7.73047 3.01367 6.94531 3.37695C6.16016 3.74023 5.57422 4.23242 5.1875 4.85352C4.8125 5.47461 4.625 6.18359 4.625 6.98047C4.625 7.51953 4.73633 8.01172 4.95898 8.45703C5.19336 8.89062 5.55078 9.29492 6.03125 9.66992C6.52344 10.0449 7.14453 10.3906 7.89453 10.707C8.65625 11.0234 9.56445 11.3281 10.6191 11.6211C12.0723 12.0312 13.3262 12.4883 14.3809 12.9922C15.4355 13.4961 16.3027 14.0645 16.9824 14.6973C17.6738 15.3184 18.1836 16.0273 18.5117 16.8242C18.8516 17.6094 19.0215 18.5 19.0215 19.4961C19.0215 20.5391 18.8105 21.4824 18.3887 22.3262C17.9668 23.1699 17.3633 23.8906 16.5781 24.4883C15.793 25.0859 14.8496 25.5488 13.748 25.877C12.6582 26.1934 11.4395 26.3516 10.0918 26.3516C8.9082 26.3516 7.74219 26.1875 6.59375 25.8594C5.45703 25.5312 4.41992 25.0391 3.48242 24.3828C2.55664 23.7266 1.8125 22.918 1.25 21.957C0.699219 20.9844 0.423828 19.8594 0.423828 18.582H3.79883C3.79883 19.4609 3.96875 20.2168 4.30859 20.8496C4.64844 21.4707 5.11133 21.9863 5.69727 22.3965C6.29492 22.8066 6.96875 23.1113 7.71875 23.3105C8.48047 23.498 9.27148 23.5918 10.0918 23.5918C11.2754 23.5918 12.2773 23.4277 13.0977 23.0996C13.918 22.7715 14.5391 22.3027 14.9609 21.6934C15.3945 21.084 15.6113 20.3633 15.6113 19.5312ZM30.7461 26.3516C29.4219 26.3516 28.2207 26.1289 27.1426 25.6836C26.0762 25.2266 25.1562 24.5879 24.3828 23.7676C23.6211 22.9473 23.0352 21.9746 22.625 20.8496C22.2148 19.7246 22.0098 18.4941 22.0098 17.1582V16.4199C22.0098 14.873 22.2383 13.4961 22.6953 12.2891C23.1523 11.0703 23.7734 10.0391 24.5586 9.19531C25.3438 8.35156 26.2344 7.71289 27.2305 7.2793C28.2266 6.8457 29.2578 6.62891 30.3242 6.62891C31.6836 6.62891 32.8555 6.86328 33.8398 7.33203C34.8359 7.80078 35.6504 8.45703 36.2832 9.30078C36.916 10.1328 37.3848 11.1172 37.6895 12.2539C37.9941 13.3789 38.1465 14.6094 38.1465 15.9453V17.4043H23.9434V14.75H34.8945V14.5039C34.8477 13.6602 34.6719 12.8398 34.3672 12.043C34.0742 11.2461 33.6055 10.5898 32.9609 10.0742C32.3164 9.55859 31.4375 9.30078 30.3242 9.30078C29.5859 9.30078 28.9062 9.45898 28.2852 9.77539C27.6641 10.0801 27.1309 10.5371 26.6855 11.1465C26.2402 11.7559 25.8945 12.5 25.6484 13.3789C25.4023 14.2578 25.2793 15.2715 25.2793 16.4199V17.1582C25.2793 18.0605 25.4023 18.9102 25.6484 19.707C25.9062 20.4922 26.2754 21.1836 26.7559 21.7812C27.248 22.3789 27.8398 22.8477 28.5312 23.1875C29.2344 23.5273 30.0312 23.6973 30.9219 23.6973C32.0703 23.6973 33.043 23.4629 33.8398 22.9941C34.6367 22.5254 35.334 21.8984 35.9316 21.1133L37.9004 22.6777C37.4902 23.2988 36.9688 23.8906 36.3359 24.4531C35.7031 25.0156 34.9238 25.4727 33.998 25.8242C33.084 26.1758 32 26.3516 30.7461 26.3516ZM45.1953 9.96875V26H41.9434V6.98047H45.1074L45.1953 9.96875ZM51.1367 6.875L51.1191 9.89844C50.8496 9.83984 50.5918 9.80469 50.3457 9.79297C50.1113 9.76953 49.8418 9.75781 49.5371 9.75781C48.7871 9.75781 48.125 9.875 47.5508 10.1094C46.9766 10.3438 46.4902 10.6719 46.0918 11.0938C45.6934 11.5156 45.377 12.0195 45.1426 12.6055C44.9199 13.1797 44.7734 13.8125 44.7031 14.5039L43.7891 15.0312C43.7891 13.8828 43.9004 12.8047 44.123 11.7969C44.3574 10.7891 44.7148 9.89844 45.1953 9.125C45.6758 8.33984 46.2852 7.73047 47.0234 7.29688C47.7734 6.85156 48.6641 6.62891 49.6953 6.62891C49.9297 6.62891 50.1992 6.6582 50.5039 6.7168C50.8086 6.76367 51.0195 6.81641 51.1367 6.875ZM66.1133 6.98047H69.0664V25.5957C69.0664 27.2715 68.7266 28.7012 68.0469 29.8848C67.3672 31.0684 66.418 31.9648 65.1992 32.5742C63.9922 33.1953 62.5977 33.5059 61.0156 33.5059C60.3594 33.5059 59.5859 33.4004 58.6953 33.1895C57.8164 32.9902 56.9492 32.6445 56.0938 32.1523C55.25 31.6719 54.541 31.0215 53.9668 30.2012L55.6719 28.2676C56.4688 29.2285 57.3008 29.8965 58.168 30.2715C59.0469 30.6465 59.9141 30.834 60.7695 30.834C61.8008 30.834 62.6914 30.6406 63.4414 30.2539C64.1914 29.8672 64.7715 29.293 65.1816 28.5312C65.6035 27.7812 65.8145 26.8555 65.8145 25.7539V11.1641L66.1133 6.98047ZM53.0176 16.7012V16.332C53.0176 14.8789 53.1875 13.5605 53.5273 12.377C53.8789 11.1816 54.377 10.1562 55.0215 9.30078C55.6777 8.44531 56.4688 7.78906 57.3945 7.33203C58.3203 6.86328 59.3633 6.62891 60.5234 6.62891C61.7188 6.62891 62.7617 6.83984 63.6523 7.26172C64.5547 7.67187 65.3164 8.27539 65.9375 9.07227C66.5703 9.85742 67.0684 10.8066 67.4316 11.9199C67.7949 13.0332 68.0469 14.293 68.1875 15.6992V17.3164C68.0586 18.7109 67.8066 19.9648 67.4316 21.0781C67.0684 22.1914 66.5703 23.1406 65.9375 23.9258C65.3164 24.7109 64.5547 25.3145 63.6523 25.7363C62.75 26.1465 61.6953 26.3516 60.4883 26.3516C59.3516 26.3516 58.3203 26.1113 57.3945 25.6309C56.4805 25.1504 55.6953 24.4766 55.0391 23.6094C54.3828 22.7422 53.8789 21.7227 53.5273 20.5508C53.1875 19.3672 53.0176 18.084 53.0176 16.7012ZM56.2695 16.332V16.7012C56.2695 17.6504 56.3633 18.541 56.5508 19.373C56.75 20.2051 57.0488 20.9375 57.4473 21.5703C57.8574 22.2031 58.3789 22.7012 59.0117 23.0645C59.6445 23.416 60.4004 23.5918 61.2793 23.5918C62.3574 23.5918 63.248 23.3633 63.9512 22.9062C64.6543 22.4492 65.2109 21.8457 65.6211 21.0957C66.043 20.3457 66.3711 19.5312 66.6055 18.6523V14.416C66.4766 13.7715 66.2773 13.1504 66.0078 12.5527C65.75 11.9434 65.4102 11.4043 64.9883 10.9355C64.5781 10.4551 64.0684 10.0742 63.459 9.79297C62.8496 9.51172 62.1348 9.37109 61.3145 9.37109C60.4238 9.37109 59.6562 9.55859 59.0117 9.93359C58.3789 10.2969 57.8574 10.8008 57.4473 11.4453C57.0488 12.0781 56.75 12.8164 56.5508 13.6602C56.3633 14.4922 56.2695 15.3828 56.2695 16.332ZM81.8984 26.3516C80.5742 26.3516 79.373 26.1289 78.2949 25.6836C77.2285 25.2266 76.3086 24.5879 75.5352 23.7676C74.7734 22.9473 74.1875 21.9746 73.7773 20.8496C73.3672 19.7246 73.1621 18.4941 73.1621 17.1582V16.4199C73.1621 14.873 73.3906 13.4961 73.8477 12.2891C74.3047 11.0703 74.9258 10.0391 75.7109 9.19531C76.4961 8.35156 77.3867 7.71289 78.3828 7.2793C79.3789 6.8457 80.4102 6.62891 81.4766 6.62891C82.8359 6.62891 84.0078 6.86328 84.9922 7.33203C85.9883 7.80078 86.8027 8.45703 87.4355 9.30078C88.0684 10.1328 88.5371 11.1172 88.8418 12.2539C89.1465 13.3789 89.2988 14.6094 89.2988 15.9453V17.4043H75.0957V14.75H86.0469V14.5039C86 13.6602 85.8242 12.8398 85.5195 12.043C85.2266 11.2461 84.7578 10.5898 84.1133 10.0742C83.4688 9.55859 82.5898 9.30078 81.4766 9.30078C80.7383 9.30078 80.0586 9.45898 79.4375 9.77539C78.8164 10.0801 78.2832 10.5371 77.8379 11.1465C77.3926 11.7559 77.0469 12.5 76.8008 13.3789C76.5547 14.2578 76.4316 15.2715 76.4316 16.4199V17.1582C76.4316 18.0605 76.5547 18.9102 76.8008 19.707C77.0586 20.4922 77.4277 21.1836 77.9082 21.7812C78.4004 22.3789 78.9922 22.8477 79.6836 23.1875C80.3867 23.5273 81.1836 23.6973 82.0742 23.6973C83.2227 23.6973 84.1953 23.4629 84.9922 22.9941C85.7891 22.5254 86.4863 21.8984 87.084 21.1133L89.0527 22.6777C88.6426 23.2988 88.1211 23.8906 87.4883 24.4531C86.8555 25.0156 86.0762 25.4727 85.1504 25.8242C84.2363 26.1758 83.1523 26.3516 81.8984 26.3516ZM98.1934 24.0312L103.484 6.98047H106.965L99.3359 28.9355C99.1602 29.4043 98.9258 29.9082 98.6328 30.4473C98.3516 30.998 97.9883 31.5195 97.543 32.0117C97.0977 32.5039 96.5586 32.9023 95.9258 33.207C95.3047 33.5234 94.5605 33.6816 93.6934 33.6816C93.4355 33.6816 93.1074 33.6465 92.709 33.5762C92.3105 33.5059 92.0293 33.4473 91.8652 33.4004L91.8477 30.7637C91.9414 30.7754 92.0879 30.7871 92.2871 30.7988C92.498 30.8223 92.6445 30.834 92.7266 30.834C93.4648 30.834 94.0918 30.7344 94.6074 30.5352C95.123 30.3477 95.5566 30.0254 95.9082 29.5684C96.2715 29.123 96.582 28.5078 96.8398 27.7227L98.1934 24.0312ZM94.3086 6.98047L99.248 21.7461L100.092 25.1738L97.7539 26.3691L90.7578 6.98047H94.3086Z" fill="white"/>
</svg>
