<svg width="30" height="30" viewBox="0 0 30 30" fill="none" xmlns="http://www.w3.org/2000/svg">
<g clip-path="url(#clip0_33_11)">
<path d="M6.85128 2.48994C6.74059 2.34756 6.60087 2.23035 6.44141 2.14611C6.28194 2.06188 6.10638 2.01253 5.92638 2.00136C5.74637 1.99019 5.56606 2.01744 5.3974 2.08131C5.22874 2.14519 5.0756 2.24421 4.94815 2.37182L3.0094 4.31244C2.10378 5.21994 1.77003 6.50432 2.16565 7.63119C3.80767 12.2954 6.47871 16.5301 9.98065 20.0212C13.4718 23.5231 17.7065 26.1941 22.3707 27.8362C23.4975 28.2318 24.7819 27.8981 25.6894 26.9924L27.6282 25.0537C27.7558 24.9262 27.8548 24.7731 27.9187 24.6045C27.9825 24.4358 28.0098 24.2555 27.9986 24.0755C27.9874 23.8955 27.9381 23.7199 27.8539 23.5604C27.7696 23.401 27.6524 23.2613 27.51 23.1506L23.1844 19.7868C23.0323 19.6688 22.8554 19.5869 22.667 19.5473C22.4786 19.5077 22.2837 19.5114 22.0969 19.5581L17.9907 20.5837C17.4426 20.7207 16.8683 20.7134 16.3239 20.5626C15.7794 20.4118 15.2833 20.1225 14.8838 19.7231L10.2788 15.1162C9.87897 14.7169 9.58939 14.2208 9.43824 13.6764C9.28709 13.1319 9.27952 12.5576 9.41628 12.0093L10.4438 7.90307C10.4905 7.71631 10.4942 7.52138 10.4545 7.333C10.4149 7.14461 10.333 6.96769 10.215 6.81557L6.85128 2.48994ZM3.53253 0.958068C3.86064 0.629848 4.25483 0.375187 4.68891 0.210995C5.123 0.0468029 5.58705 -0.0231633 6.05024 0.00574221C6.51344 0.0346477 6.96519 0.161764 7.37549 0.378649C7.7858 0.595535 8.14526 0.897227 8.43003 1.26369L11.7938 5.58744C12.4107 6.38057 12.6282 7.41369 12.3844 8.38869L11.3588 12.4949C11.3058 12.7076 11.3086 12.9304 11.3671 13.1416C11.4256 13.3529 11.5377 13.5454 11.6925 13.7006L16.2994 18.3074C16.4547 18.4626 16.6476 18.5749 16.8592 18.6334C17.0708 18.6919 17.2939 18.6946 17.5069 18.6412L21.6113 17.6156C22.0924 17.4953 22.5946 17.4859 23.0799 17.5882C23.5652 17.6906 24.0209 17.9019 24.4125 18.2062L28.7363 21.5699C30.2907 22.7793 30.4332 25.0762 29.0419 26.4656L27.1032 28.4043C25.7157 29.7918 23.6419 30.4012 21.7088 29.7206C16.761 27.9797 12.2687 25.1471 8.56503 21.4331C4.85119 17.73 2.01867 13.2383 0.277528 8.29119C-0.401221 6.35994 0.208154 4.28432 1.59565 2.89682L3.5344 0.958068H3.53253Z" fill="white"/>
</g>
<defs>
<clipPath id="clip0_33_11">
<rect width="30" height="30" fill="white"/>
</clipPath>
</defs>
</svg>
